HIERARCHY
ROOT Hips
{
    OFFSET   0.000000   0.000000   0.000000
    CHANNELS 6 Xposition Yposition Zposition Zrotation Xrotation Yrotation
    JOINT Chest
    {
        OFFSET   0.000000   8.007230   0.000000
        CHANNELS 3 Zrotation Xrotation Yrotation
        JOINT Chest2
        {
            OFFSET   0.000000  22.077100   0.000000
            CHANNELS 3 Zrotation Xrotation Yrotation
            JOINT Neck
            {
                OFFSET   0.000000  23.255100   0.000000
                CHANNELS 3 Zrotation Xrotation Yrotation
                JOINT Head
                {
                    OFFSET   0.000000  14.370100   1.956600
                    CHANNELS 3 Zrotation Xrotation Yrotation
                    End Site
                    {
                        OFFSET   0.000000  19.566000   0.000000
                    }
                }
            }
            JOINT LeftCollar
            {
                OFFSET   3.911900  19.017000  -0.467063
                CHANNELS 3 Zrotation Xrotation Yrotation
                JOINT LeftShoulder
                {
                    OFFSET  10.383700   0.000000   0.000000
                    CHANNELS 3 Zrotation Xrotation Yrotation
                    JOINT LeftElbow
                    {
                        OFFSET  26.662100   0.001193   0.000980
                        CHANNELS 3 Zrotation Xrotation Yrotation
                        JOINT LeftWrist
                        {
                            OFFSET  28.869000  -0.000059  -0.000082
                            CHANNELS 3 Zrotation Xrotation Yrotation
                            JOINT LeftFinger0
                            {
                                OFFSET   2.044650  -2.323450   3.252850
                                CHANNELS 3 Zrotation Xrotation Yrotation
                                JOINT LeftFinger01
                                {
                                    OFFSET   3.088130   0.000000   0.000000
                                    CHANNELS 3 Zrotation Xrotation Yrotation
                                    JOINT LeftFinger02
                                    {
                                        OFFSET   2.639460   0.000000   0.000000
                                        CHANNELS 3 Zrotation Xrotation Yrotation
                                        End Site
                                        {
                                            OFFSET   2.582190   0.000000   0.000000
                                        }
                                    }
                                }
                            }
                            JOINT LeftFinger1
                            {
                                OFFSET   8.364480   0.000000   3.252850
                                CHANNELS 3 Zrotation Xrotation Yrotation
                                JOINT LeftFinger11
                                {
                                    OFFSET   4.646930   0.000000   0.000000
                                    CHANNELS 3 Zrotation Xrotation Yrotation
                                    JOINT LeftFinger12
                                    {
                                        OFFSET   2.323470   0.000000   0.000000
                                        CHANNELS 3 Zrotation Xrotation Yrotation
                                        End Site
                                        {
                                            OFFSET   2.273050   0.000000   0.000000
                                        }
                                    }
                                }
                            }
                            JOINT LeftFinger2
                            {
                                OFFSET   8.364490   0.000016   1.078090
                                CHANNELS 3 Zrotation Xrotation Yrotation
                                JOINT LeftFinger21
                                {
                                    OFFSET   5.111610   0.000000   0.000000
                                    CHANNELS 3 Zrotation Xrotation Yrotation
                                    JOINT LeftFinger22
                                    {
                                        OFFSET   2.788150   0.000016   0.000000
                                        CHANNELS 3 Zrotation Xrotation Yrotation
                                        End Site
                                        {
                                            OFFSET   2.727660   0.000000   0.000000
                                        }
                                    }
                                }
                            }
                            JOINT LeftFinger3
                            {
                                OFFSET   7.899780   0.000015  -1.078090
                                CHANNELS 3 Zrotation Xrotation Yrotation
                                JOINT LeftFinger31
                                {
                                    OFFSET   4.646930   0.000000   0.000000
                                    CHANNELS 3 Zrotation Xrotation Yrotation
                                    JOINT LeftFinger32
                                    {
                                        OFFSET   2.323470   0.000000   0.000000
                                        CHANNELS 3 Zrotation Xrotation Yrotation
                                        End Site
                                        {
                                            OFFSET   2.273050   0.000000   0.000000
                                        }
                                    }
                                }
                            }
                            JOINT LeftFinger4
                            {
                                OFFSET   7.435090   0.000000  -3.252850
                                CHANNELS 3 Zrotation Xrotation Yrotation
                                JOINT LeftFinger41
                                {
                                    OFFSET   3.717550   0.000000   0.000000
                                    CHANNELS 3 Zrotation Xrotation Yrotation
                                    JOINT LeftFinger42
                                    {
                                        OFFSET   1.858770   0.000000   0.000000
                                        CHANNELS 3 Zrotation Xrotation Yrotation
                                        End Site
                                        {
                                            OFFSET   1.818440   0.000000   0.000000
                                        }
                                    }
                                }
                            }
                        }
                    }
                }
            }
            JOINT RightCollar
            {
                OFFSET  -3.911910  19.017000  -0.467062
                CHANNELS 3 Zrotation Xrotation Yrotation
                JOINT RightShoulder
                {
                    OFFSET -10.383700   0.000014   0.000000
                    CHANNELS 3 Zrotation Xrotation Yrotation
                    JOINT RightElbow
                    {
                        OFFSET -26.662100   0.001225   0.001091
                        CHANNELS 3 Zrotation Xrotation Yrotation
                        JOINT RightWrist
                        {
                            OFFSET -28.869000  -0.000020  -0.000085
                            CHANNELS 3 Zrotation Xrotation Yrotation
                            JOINT RightFinger0
                            {
                                OFFSET  -2.044650  -2.323490   3.252850
                                CHANNELS 3 Zrotation Xrotation Yrotation
                                JOINT RightFinger01
                                {
                                    OFFSET  -3.088130   0.000000   0.000000
                                    CHANNELS 3 Zrotation Xrotation Yrotation
                                    JOINT RightFinger02
                                    {
                                        OFFSET  -2.639460   0.000000   0.000000
                                        CHANNELS 3 Zrotation Xrotation Yrotation
                                        End Site
                                        {
                                            OFFSET  -2.582190   0.000000   0.000000
                                        }
                                    }
                                }
                            }
                            JOINT RightFinger1
                            {
                                OFFSET  -8.364480   0.000000   3.252850
                                CHANNELS 3 Zrotation Xrotation Yrotation
                                JOINT RightFinger11
                                {
                                    OFFSET  -4.646930   0.000000   0.000000
                                    CHANNELS 3 Zrotation Xrotation Yrotation
                                    JOINT RightFinger12
                                    {
                                        OFFSET  -2.323470   0.000000   0.000000
                                        CHANNELS 3 Zrotation Xrotation Yrotation
                                        End Site
                                        {
                                            OFFSET  -2.273050   0.000000   0.000000
                                        }
                                    }
                                }
                            }
                            JOINT RightFinger2
                            {
                                OFFSET  -8.364480   0.000000   1.078090
                                CHANNELS 3 Zrotation Xrotation Yrotation
                                JOINT RightFinger21
                                {
                                    OFFSET  -5.111620   0.000000   0.000000
                                    CHANNELS 3 Zrotation Xrotation Yrotation
                                    JOINT RightFinger22
                                    {
                                        OFFSET  -2.788160   0.000000   0.000000
                                        CHANNELS 3 Zrotation Xrotation Yrotation
                                        End Site
                                        {
                                            OFFSET  -2.727660   0.000000   0.000000
                                        }
                                    }
                                }
                            }
                            JOINT RightFinger3
                            {
                                OFFSET  -7.899780   0.000000  -1.078090
                                CHANNELS 3 Zrotation Xrotation Yrotation
                                JOINT RightFinger31
                                {
                                    OFFSET  -4.646930   0.000000   0.000000
                                    CHANNELS 3 Zrotation Xrotation Yrotation
                                    JOINT RightFinger32
                                    {
                                        OFFSET  -2.323470   0.000000   0.000000
                                        CHANNELS 3 Zrotation Xrotation Yrotation
                                        End Site
                                        {
                                            OFFSET  -2.273050   0.000000   0.000000
                                        }
                                    }
                                }
                            }
                            JOINT RightFinger4
                            {
                                OFFSET  -7.435090   0.000000  -3.252850
                                CHANNELS 3 Zrotation Xrotation Yrotation
                                JOINT RightFinger41
                                {
                                    OFFSET  -3.717550   0.000000   0.000000
                                    CHANNELS 3 Zrotation Xrotation Yrotation
                                    JOINT RightFinger42
                                    {
                                        OFFSET  -1.858760   0.000000   0.000000
                                        CHANNELS 3 Zrotation Xrotation Yrotation
                                        End Site
                                        {
                                            OFFSET  -1.818440   0.000000   0.000000
                                        }
                                    }
                                }
                            }
                        }
                    }
                }
            }
        }
    }
    JOINT LeftHip
    {
        OFFSET   9.783030   0.000000   0.000000
        CHANNELS 3 Zrotation Xrotation Yrotation
        JOINT LeftKnee
        {
            OFFSET   0.000063 -41.789100   0.000608
            CHANNELS 3 Zrotation Xrotation Yrotation
            JOINT LeftAnkle
            {
                OFFSET   0.000048 -41.133200  -0.000184
                CHANNELS 3 Zrotation Xrotation Yrotation
                JOINT LeftToe
                {
                    OFFSET   0.000000  -6.358960  14.674500
                    CHANNELS 3 Zrotation Xrotation Yrotation
                    End Site
                    {
                        OFFSET   0.000000   0.000000   3.913200
                    }
                }
            }
        }
    }
    JOINT RightHip
    {
        OFFSET  -9.783030   0.000000   0.000000
        CHANNELS 3 Zrotation Xrotation Yrotation
        JOINT RightKnee
        {
            OFFSET   0.000071 -41.789100   0.001239
            CHANNELS 3 Zrotation Xrotation Yrotation
            JOINT RightAnkle
            {
                OFFSET   0.000037 -41.133200  -0.000166
                CHANNELS 3 Zrotation Xrotation Yrotation
                JOINT RightToe
                {
                    OFFSET   0.000000  -6.358960  14.674500
                    CHANNELS 3 Zrotation Xrotation Yrotation
                    End Site
                    {
                        OFFSET   0.000000   0.000000   3.913200
                    }
                }
            }
        }
    }
}
MOTION
Frames: 5
Frame Time:   0.016667
  0.745717  89.547400   1.359850  -2.719060  -6.934970  -1.473120   0.662326   4.085070   0.830620   1.269900   8.179040   1.619910   1.811300   1.392940  -0.053611   2.981010   2.815540  -3.222620  -3.137950  -0.618015  -0.021989 -76.336400  17.517000   0.098653  -0.592168  -3.777340 -19.009000  15.327500 -13.834800   6.433570  41.599400  36.786000 -69.947800 -30.335900   0.005584   0.003315 -10.176800   0.006320   0.005710 -31.076800   4.146550  -6.841400 -25.629400  -0.000235   0.001300 -17.953000   0.001214  -0.008068 -28.764100  -1.372750   2.517250 -42.139900   0.003006   0.000640 -28.065200   0.005327   0.000715 -28.758200  -1.372650   2.517300 -41.986400  -0.002988  -0.007682 -27.972300   0.000809  -0.006556 -33.444200  -1.570420   2.396030 -50.213800   0.001984  -0.002288 -33.443800   0.005330  -0.004653   8.344050   0.586680   4.325900  71.103000  10.807000  -7.760140  -2.218550  -3.349790  15.540700 -13.043800 -25.656800  -4.307530 -53.815100  46.366400  89.860800  24.504600  -0.003348  -0.001095   7.247160  -0.002929  -0.003817  27.539800   8.703660  16.182700  23.547000   0.002218   0.004277  16.482900  -0.005516   0.008793  26.988000   5.694700  11.040100  29.390700   0.003253  -0.000851  19.574200   0.002512   0.007370  24.479600   3.925640   8.551450  24.773300   0.001935   0.003707  16.499000   0.001112   0.002087  29.370800   1.344890   2.396800  44.098200  -0.002452  -0.001450  29.369400  -0.011094  -0.001463   3.106180   9.900890   3.222390   0.732209  -0.038284   6.945510  -1.890030  -3.840390   1.769220   0.000000   0.000000   0.000000   2.605240   8.895930  -6.261550  -0.053998   1.039280  -7.221850   0.357413  -3.898620   3.065310  -0.000000   0.000000  -0.000000
  0.749522  89.547500   1.353980  -2.719340  -6.941840  -1.476170   0.656147   4.096080   0.831202   1.257330   8.201020   1.621430   1.833220   1.413080  -0.053408   3.017330   2.856220  -3.349520  -3.126560  -0.618257  -0.008605 -76.325700  17.536700   0.085122  -0.593827  -3.792620 -18.998700  15.323100 -13.840100   6.433810  41.594300  36.779100 -69.947500 -30.335700   0.005580   0.003315 -10.176700   0.006321   0.005853 -31.084800   4.150410  -6.845560 -25.636300  -0.000240   0.001303 -17.953000   0.001212  -0.008067 -28.764200  -1.372780   2.513190 -42.148500   0.003005   0.000641 -28.070900   0.005324   0.000713 -28.758300  -1.372670   2.513230 -41.991300  -0.002984  -0.007675 -27.972200   0.000809  -0.006555 -33.443900  -1.570400   2.392130 -50.213700   0.001981  -0.002291 -33.443500   0.005332  -0.004655   8.333260   0.580938   4.310010  71.069400  10.908800  -7.679150  -2.241100  -3.294970  15.567300 -13.067800 -25.656200  -4.321090 -53.828100  46.381500  89.904500  24.502300  -0.003343  -0.001083   7.246720  -0.002931  -0.003816  27.549800   8.711990  16.190600  23.556800   0.002226   0.004271  16.489700  -0.005510   0.008793  26.993600   5.694810  11.035700  29.417600   0.003251  -0.000848  19.592200   0.002519   0.007371  24.493300   3.935020   8.566190  24.788300   0.001937   0.003706  16.509000   0.001117   0.002083  29.385200   1.344970   2.391230  44.119900  -0.002454  -0.001450  29.383800  -0.011097  -0.001467   3.105940   9.902720   3.222490   0.725782  -0.037184   6.946950  -1.886100  -3.838330   1.772260   0.000000   0.000000  -0.000000   2.601440   8.898070  -6.261600  -0.054499   1.036050  -7.213860   0.357328  -3.891780   3.065650  -0.000000   0.000000   0.000000
  0.755529  89.547500   1.343330  -2.720520  -6.953360  -1.485670   0.644469   4.114560   0.834699   1.233410   8.237890   1.629150   1.881630   1.449040  -0.053205   3.097350   2.928590  -3.608780  -3.107160  -0.618499   0.012949 -76.307100  17.570800   0.060738  -0.595017  -3.818680 -18.983800  15.316400 -13.848600   6.434210  41.585800  36.772100 -69.947200 -30.335500   0.005567   0.003312 -10.176500   0.006326   0.006050 -31.097600   4.156230  -6.851630 -25.647200  -0.000245   0.001309 -17.953000   0.001207  -0.008067 -28.764400  -1.372840   2.506340 -42.161200   0.003000   0.000642 -28.079300   0.005318   0.000706 -28.758500  -1.372730   2.506380 -41.998400  -0.002973  -0.007657 -27.972000   0.000809  -0.006554 -33.443700  -1.570380   2.385560 -50.213600   0.001975  -0.002298 -33.443100   0.005333  -0.004660   8.323200   0.565313   4.294120  71.012600  11.082200  -7.541630  -2.282880  -3.193450  15.612100 -13.105700 -25.654000  -4.340640 -53.866500  46.414400  90.005300  24.487400  -0.003333  -0.001071   7.243680  -0.002936  -0.003808  27.563400   8.733010  16.218400  23.572200   0.002245   0.004261  16.500500  -0.005504   0.008790  27.002200   5.695000  11.028800  29.459800   0.003246  -0.000844  19.620300   0.002536   0.007374  24.514000   3.956360   8.603720  24.812000   0.001944   0.003700  16.524800   0.001131   0.002074  29.408600   1.345120   2.382210  44.154900  -0.002460  -0.001452  29.407200  -0.011101  -0.001476   3.105700   9.904540   3.222610   0.718552  -0.029483   6.950710  -1.881950  -3.836260   1.778590  -0.000000   0.000000   0.000000   2.595030   8.900200  -6.261650  -0.054675   1.032820  -7.205880   0.358205  -3.881540   3.068150  -0.000000   0.000000   0.000000
  0.759612  89.547600   1.333110  -2.724080  -6.962860  -1.502650   0.632070   4.129780   0.842452   1.207760   8.268240   1.645490   1.943360   1.482430  -0.053256   3.199100   2.995220  -3.906140  -3.090110  -0.618432   0.032250 -76.290500  17.600700   0.036710  -0.592354  -3.842400 -18.977000  15.311900 -13.854200   6.434530  41.591100  36.777900 -69.956800 -30.336200   0.005541   0.003307 -10.176300   0.006332   0.006129 -31.105400   4.159220  -6.854250 -25.653800  -0.000244   0.001317 -17.956200   0.001198  -0.012727 -28.764600  -1.372920   2.499250 -42.165200   0.002989   0.000643 -28.081900   0.005309   0.000694 -28.758700  -1.372820   2.499300 -42.000200  -0.002954  -0.007632 -27.972400   0.000805  -0.006550 -33.444000  -1.570400   2.378930 -50.213900   0.001972  -0.002307 -33.443200   0.005332  -0.004669   8.325900   0.540623   4.294990  70.966800  11.233600  -7.426050  -2.322290  -3.088570  15.645900 -13.128100 -25.600900  -4.349290 -53.935000  46.459600  90.148700  24.454400  -0.003326  -0.001075   7.229040  -0.002938  -0.003780  27.571900   8.765150  16.269700  23.584900   0.002271   0.004253  16.509400  -0.005506   0.008787  27.008200   5.695160  11.024000  29.489600   0.003242  -0.000843  19.640200   0.002563   0.007379  24.526800   3.985000   8.659780  24.829100   0.001953   0.003689  16.536100   0.001153   0.002057  29.430000   1.345310   2.373940  44.186900  -0.002471  -0.001462  29.428500  -0.011104  -0.001485   3.109040   9.879990   3.222390   0.711900   0.027519   6.956310  -1.882160  -3.859740   1.786010  -0.000000   0.000000  -0.000000   2.587890   8.895820  -6.253010  -0.052822   1.042750  -7.207180   0.361688  -3.877050   3.076350  -0.000000   0.000000   0.000000
  0.763335  89.547600   1.321530  -2.731010  -6.972100  -1.524690   0.618326   4.144810   0.853948   1.179120   8.298200   1.669450   2.023210   1.519430  -0.053604   3.330610   3.068960  -4.281440  -3.073860  -0.617961   0.043380 -76.273600  17.631900   0.011838  -0.588462  -3.863510 -18.972600  15.308600 -13.860200   6.434800  41.592100  36.783700 -69.966500 -30.339100   0.005511   0.003296 -10.176200   0.006341   0.006152 -31.115000   4.162250  -6.856770 -25.661900  -0.000243   0.001326 -17.963300   0.001187  -0.020113 -28.764600  -1.373010   2.494950 -42.172500   0.002975   0.000644 -28.086800   0.005297   0.000679 -28.758800  -1.372910   2.495010 -42.004200  -0.002929  -0.007599 -27.974800   0.000797  -0.006546 -33.444800  -1.570490   2.374800 -50.216000   0.001966  -0.002319 -33.443800   0.005330  -0.004682   8.334280   0.507626   4.301200  70.918900  11.378500  -7.308080  -2.372190  -2.976020  15.687100 -13.138900 -25.444600  -4.348160 -54.019300  46.507500  90.317400  24.403200  -0.003316  -0.001079   7.201600  -0.002945  -0.003747  27.567600   8.805160  16.341200  23.592000   0.002308   0.004241  16.514400  -0.005510   0.008783  27.013000   5.695300  11.020200  29.513200   0.003236  -0.000841  19.655800   0.002598   0.007384  24.535200   4.021280   8.733880  24.842900   0.001965   0.003674  16.545300   0.001182   0.002035  29.442400   1.345480   2.369120  44.205400  -0.002485  -0.001475  29.440800  -0.011108  -0.001496   3.115900   9.851010   3.222110   0.703449   0.099136   6.963990  -1.881910  -3.892840   1.795620   0.000000   0.000000  -0.000000   2.579530   8.888310  -6.236120  -0.048231   1.056990  -7.211130   0.365541  -3.871260   3.088880   0.000000   0.000000   0.000000
